<?xml version="1.0"?><svg width="393.235" height="491.029" xmlns="http://www.w3.org/2000/svg">
 <title>Caduceus made smaller</title>

 <g>
  <title>Layer 1</title>
  <g id="Layer_1">
   <path id="svg_1" stroke-linejoin="bevel" stroke="#FFFFFF" d="m195.546997,460.528809l2.141998,0l11,-392.412827l-24.141998,0l11,392.412827z"/>
   <g id="svg_2">
    <path id="svg_3" stroke-linejoin="bevel" stroke="#FFFFFF" d="m170.192001,119.131386c-21.710007,2.393311 -41.389999,-19.801712 -31.369995,-25.016373c0.970001,-1.965324 0.689987,-2.987289 -1.630005,-2.611687c-23.599998,2.838799 -38.520004,-14.290085 -35.919998,-32.152679c0.169998,-1.196663 -0.771004,-1.441238 -1.530006,-1.484905c-0.879997,-0.052406 -1.579994,0.864742 -2.019997,1.484905c-7.330002,10.324493 -19.75,16.60479 -31.080002,23.225746c-13,7.607986 -33.119999,17.364716 -41.810999,18.674927c-7.68,1.152985 -19.75,2.38459 -24.129999,-3.083374c-0.899,-1.310211 -0.01,-1.449974 1.07,-1.965324c14.399999,-6.315239 15.91,-4.917671 42.299999,-19.50473c23.160004,-12.805164 45.510002,-29.628315 67,-39.131744c9.450005,-4.17522 38.75,-7.992311 48.970001,4.280033c17.410004,20.911034 -7.029007,30.021389 -7.729004,33.716198c-1.349991,7.136299 6.689011,20.395676 27.600006,15.556618l2.75,-0.759933l0.649994,25.444366l-0.940002,0.454224c-4.079987,1.754814 -8.188995,2.655373 -12.179993,2.873734z"/>
    <path id="svg_4" stroke-linejoin="bevel" stroke="#FFFFFF" d="m92.031998,70.940819c0.700005,-0.690056 3.82,-2.000275 4,-0.873482c0.480003,2.969818 2.290001,7.014008 4.290001,10.298286c0.68,1.109314 -0.809998,2.524345 -1.75,3.493904c-13.399002,9.887749 -29.209999,19.295097 -42.869999,24.588348c-4.389999,1.336426 -9.259998,2.087624 -13.950001,1.755699c-3.159,-0.218369 -7.549999,-0.061134 -9.069,-2.489403c-0.350998,-0.567757 0.149002,-1.336418 0.580002,-1.851776c21.209999,-7.642044 37.469002,-18.394531 58.768997,-34.921577z"/>
    <path id="svg_5" stroke-linejoin="bevel" stroke="#FFFFFF" d="m100.571999,86.454628c0.620003,-0.5765 1.700005,-1.257805 2.93,-0.81234c2.881004,2.926147 4.471001,4.31498 7.850998,5.616455c1.080002,0.41053 2.450005,1.712021 0.649002,3.057175c-18.919998,14.010551 -33.25,25.933517 -52.028999,21.443855c-0.600998,-0.139763 -0.459999,-1.790634 0.069,-2.061424c11.140999,-5.607719 23.959999,-11.775337 40.529999,-27.243721z"/>
    <path id="svg_6" stroke-linejoin="bevel" stroke="#FFFFFF" d="m115.952003,94.944817c2.949997,-1.73822 0.489998,0.393066 13.299995,1.22287c1.660004,0.104813 -0.188995,3.179451 -0.778992,4.559547c-5.860008,7.450752 -15.860008,14.281342 -24.290009,17.836395c-4.080002,1.729469 -9.580002,2.629166 -13.640999,0.812325c-0.399002,-0.17469 -0.488998,-0.803596 -0.720001,-0.995758c-0.830002,-0.733727 5.470001,-4.742981 11.290001,-9.354935c5.521004,-4.385727 13.201004,-11.740395 14.840004,-14.080444z"/>
    <path id="svg_7" stroke-linejoin="bevel" stroke="#FFFFFF" d="m223.042999,119.131386c21.710007,2.393311 41.390015,-19.801712 31.369995,-25.016373c-0.970993,-1.965324 -0.689987,-2.987289 1.630005,-2.611687c23.600006,2.838799 38.519989,-14.290085 35.920013,-32.152679c-0.170013,-1.196663 0.769989,-1.441238 1.528992,-1.484905c0.880981,-0.052406 1.579987,0.864742 2.020996,1.484905c7.329987,10.324493 19.75,16.60479 31.079987,23.225746c13,7.607986 33.120026,17.364716 41.810028,18.674927c7.681,1.152985 19.75,2.38459 24.129974,-3.083374c0.900024,-1.310211 0.011017,-1.449974 -1.069,-1.965324c-14.399994,-6.315239 -15.910004,-4.917671 -42.299988,-19.50473c-23.160004,-12.805164 -45.510986,-29.628315 -67,-39.131744c-9.450012,-4.17522 -38.75,-7.992311 -48.971008,4.280033c-17.409988,20.911034 7.030014,30.021389 7.730011,33.716198c1.349991,7.136299 -6.690002,20.395676 -27.600998,15.556618l-2.75,-0.759933l-0.649002,25.444366l0.938995,0.454224c4.080002,1.754814 8.190994,2.655373 12.181,2.873734z"/>
    <path id="svg_8" stroke-linejoin="bevel" stroke="#FFFFFF" d="m301.203003,70.940819c-0.700012,-0.690056 -3.820007,-2.000275 -4,-0.873482c-0.480011,2.969818 -2.290009,7.014008 -4.290009,10.298286c-0.681,1.109314 0.809998,2.524345 1.75,3.493904c13.399017,9.887749 29.209991,19.295097 42.869019,24.588348c4.390991,1.336426 9.260986,2.087624 13.949982,1.755699c3.160004,-0.218369 7.550018,-0.061134 9.070007,-2.489403c0.350006,-0.567757 -0.149994,-1.336418 -0.580017,-1.851776c-21.208984,-7.642044 -37.468994,-18.394531 -58.768982,-34.921577z"/>
    <path id="svg_9" stroke-linejoin="bevel" stroke="#FFFFFF" d="m292.662994,86.454628c-0.619995,-0.5765 -1.700012,-1.257805 -2.931,-0.81234c-2.880005,2.926147 -4.470001,4.31498 -7.850006,5.616455c-1.079987,0.41053 -2.450012,1.712021 -0.649994,3.057175c18.919983,14.010551 33.25,25.933517 52.029999,21.443855c0.600006,-0.139763 0.459991,-1.790634 -0.070007,-2.061424c-11.138977,-5.607719 -23.959991,-11.775337 -40.528992,-27.243721z"/>
    <path id="svg_10" stroke-linejoin="bevel" stroke="#FFFFFF" d="m277.282013,94.944817c-2.949005,-1.73822 -0.489014,0.393066 -13.299988,1.22287c-1.660004,0.104813 0.189972,3.179451 0.779999,4.559547c5.859985,7.450752 15.859985,14.281342 24.289978,17.836395c4.080017,1.729469 9.580017,2.629166 13.640015,0.812325c0.399994,-0.17469 0.48999,-0.803596 0.721008,-0.995758c0.828979,-0.733727 -5.471008,-4.742981 -11.290009,-9.354935c-5.52002,-4.385727 -13.200012,-11.740395 -14.841003,-14.080444z"/>
   </g>
   <path id="svg_11" stroke="#FFFFFF" d="m196.612,32.499981c10.160004,0 18.410004,7.206184 18.410004,16.0807s-8.25,16.071976 -18.410004,16.071976s-18.399002,-7.197453 -18.399002,-16.071976s8.238998,-16.0807 18.399002,-16.0807z"/>
   <path id="svg_12" stroke-width="0.5" stroke-linejoin="bevel" stroke="#000000" fill="#FFFFFF" d="m201.501999,41.811245c-0.880005,-1.292747 0.369995,-3.616196 3.130005,-2.838802c10.660004,4.227627 5.399994,20.5005 -6.380005,20.046284c-1.809998,0.043678 -2.389999,-1.493645 -1.039993,-2.323444c5.149994,-3.057171 9.479996,-7.546833 4.289993,-14.884037z"/>
   <path id="svg_13" stroke-linejoin="bevel" stroke="#FFFFFF" d="m260.687988,160.752533c1.188995,-11.573563 -9.470001,-24.824203 -26.459991,-26.108215c-5.910004,-0.445465 -14.790009,-0.480408 -19.930008,3.563782c-4.869995,3.834564 7.858994,11.844345 14.540009,12.420837c8.94899,0.768677 13.658997,-2.987274 15.259995,-5.170975c0.550003,-0.733719 1.539993,-0.436737 1.889999,0.314453c4.059998,26.476822 -26.826996,32.512543 -49.365005,38.084457c4.667999,1.15387 8.977997,2.288498 12.544998,3.580368c6.315002,2.289398 11.710007,4.754318 16.313004,7.341568c17.681015,-7.982697 33.649017,-18.741302 35.207001,-34.026276z"/>
   <path id="svg_14" stroke-linejoin="bevel" stroke="#FFFFFF" d="m177.638,392.616852c-10.690002,9.529663 -9.850006,23.68869 1.800003,33.820984c-1.800003,-10.420532 -6.210007,-18.264343 7.179993,-27.82019c3.354004,-2.395935 6.630997,-4.129822 10.003006,-5.783264c-3.779999,-1.854401 -7.684998,-3.610107 -11.957001,-6.087311c-2.699005,2.199463 -5.143997,4.194458 -7.026001,5.869781z"/>
   <path id="svg_15" stroke-linejoin="bevel" stroke="#FFFFFF" d="m218.287994,266.599518c-6.986008,-3.879974 -14.610001,-7.309235 -21.666,-10.759476c-4.123001,-2.016846 -8.052002,-4.04068 -11.544006,-6.168488c-19.949997,-12.150055 -20.110001,-32.842697 8.970001,-42.975037c0.839005,-0.291733 1.699997,-0.591354 2.574005,-0.894424c-8.702011,-3.016998 -19.041,-6.593002 -28.858002,-11.025024c-35.285004,19.826172 -23.451996,46.851517 -12.766006,57.583939c5.244003,5.257462 12.371017,9.874649 19.957016,14.23851c7.218002,4.151672 14.845993,8.073578 21.666992,12.096802c5.177002,3.052826 9.889999,6.163269 13.596008,9.478119c13.089996,11.713318 2.300003,24.850372 -3.110001,28.396667c-3.360001,2.200287 -6.904007,4.174377 -10.486008,6.109131c7.544006,4.071259 15.253006,7.963501 21.811005,13.353699c8.746002,-5.934387 16.653,-13.497833 21.024994,-23.602203c10.082001,-23.307861 -3.5,-36.017792 -21.169998,-45.832214z"/>
   <path id="svg_16" stroke-linejoin="bevel" stroke="#FFFFFF" d="m225.479996,194.777924c-4.603989,-2.586365 -9.998001,-5.052185 -16.312988,-7.341553c-3.567001,-1.29187 -7.877014,-2.425629 -12.545013,-3.580383c-22.536987,-5.571915 -53.423996,-11.60762 -49.363998,-38.084442c0.350006,-0.751205 1.340012,-1.048172 1.880005,-0.314453c1.600006,2.183685 6.309998,5.939636 15.270004,5.170975c6.681,-0.576508 19.409988,-8.586273 14.539993,-12.420837c-5.139999,-4.044189 -14.020004,-4.009262 -19.929993,-3.563782c-16.990005,1.284012 -27.650009,14.534653 -26.470001,26.108215c1.563995,15.284958 17.53299,26.043564 35.216003,34.02626c9.816986,4.432037 20.155991,8.008057 28.857986,11.025055c0.875,0.303085 1.736008,0.601807 2.575012,0.894424c29.079987,10.132324 28.919998,30.824997 8.970001,42.975037c-3.492004,2.127792 -7.421005,4.151611 -11.545013,6.168472c7.056,3.450226 14.680008,6.879517 21.666,10.759521c7.584,-4.363007 14.709,-8.981079 19.949005,-14.237671c10.695007,-10.733276 22.529999,-37.758652 -12.757004,-57.584839z"/>
   <path id="svg_17" stroke-linejoin="bevel" stroke="#FFFFFF" d="m215.606995,392.616852c-1.883011,-1.675323 -4.328003,-3.671204 -7.027008,-5.87149c-3.751999,-3.058014 -7.994995,-6.516113 -11.957993,-10.100006c-2.786011,-2.520874 -5.434006,-5.098511 -7.654007,-7.639435c-9.300003,-10.630219 -0.25,-17.460785 6.87001,-20.762512c0.258987,-0.120544 0.521988,-0.242859 0.784988,-0.364258c-6.838989,-3.179443 -14.606995,-6.958984 -21.809982,-11.8461c-1.496002,1.229004 -2.936996,2.530457 -4.296005,3.937653c-12.410004,12.840118 -9.169998,28.109314 0,36.38028c5.247009,4.730743 9.880005,7.92157 14.145996,10.394379c4.272003,2.477203 8.177002,4.23288 11.957001,6.08725c3.371002,1.654358 6.645996,3.387329 9.996994,5.783295c13.399994,9.554962 8.990005,17.399628 7.190002,27.820221c11.650009,-10.130585 12.491013,-24.289612 1.800003,-33.819275z"/>
   <path id="svg_18" stroke-linejoin="bevel" stroke="#FFFFFF" d="m222.727997,339.971558c-1.358994,-1.406281 -2.800003,-2.708649 -4.29599,-3.937622c-6.558014,-5.390198 -14.267014,-9.28244 -21.811005,-13.353699c-3.584,-1.934753 -7.130005,-3.909698 -10.492996,-6.109131c-5.400009,-3.546295 -16.200012,-16.68338 -3.101013,-28.396667c3.705002,-3.31485 8.419006,-6.424408 13.595001,-9.478119c-6.820999,-4.022369 -14.44899,-7.94516 -21.666992,-12.096802c-17.669006,9.813507 -31.25,22.524384 -21.167007,45.83136c4.372009,10.10434 12.279007,17.668671 21.025009,23.602173c7.201996,4.887115 14.970993,8.666656 21.809998,11.8461c0.261993,0.121399 0.524994,0.243713 0.783997,0.364258c7.119995,3.300873 16.169998,10.132294 6.869995,20.762543c-2.220993,2.540924 -4.867996,5.11853 -7.654999,7.639404c3.963013,3.583893 8.206009,7.041992 11.958008,10.100006c4.264999,-2.471924 8.897995,-5.66272 14.147003,-10.392609c9.169998,-8.271851 12.410995,-23.541077 0.000992,-36.381195z"/>
  </g>
 </g>
</svg>